<?xml version="1.0" encoding="utf-8"?>
<svg xmlns="http://www.w3.org/2000/svg" viewBox="0 0 1200 1200">
<path fill="#FFFFFF" d="M260.7,1049.4L27.3,644.6c-21.6-37.5-21.6-83.7,0-121.2l233.4-404.5c21.7-37.6,61.8-60.7,105-60.7h466.5c43.3,0,83.5,23.1,105,60.7l233.5,404.7c21.6,37.5,21.6,83.7,0,121.2l-233.4,404.8c-21.7,37.6-61.8,60.7-105,60.7H366C322.5,1110.1,282.5,1086.9,260.7,1049.4z"/>
<path fill="#7C4DFF" d="M280.6,1021.9L61.1,641.2c-20.4-35.3-20.4-78.8,0-114l219.5-380.8c20.5-35.4,58.2-57.1,98.9-57.1h439c40.7,0,78.5,21.7,98.9,57.1L1137.1,527c20.4,35.3,20.4,78.8,0,114l-219.6,381c-20.5,35.4-58.2,57.1-98.9,57.1H379.7C338.8,1079.1,301.1,1057.3,280.6,1021.9z"/>
<path fill="#F7F7F7" d="M377.9,510.9h451.7c5.7,0,10.2-4.6,10.2-10.2v-84.7c0-56.3-45.7-102-102-102H466.6c-78.9-0.1-142.8,63.8-142.8,142.7l0,0C323.7,486.8,347.9,510.9,377.9,510.9z"/>
<path fill="#F7F7F7" d="M422.2,885.1h269.9c81.5,0,147.7-66.2,147.7-147.7l0,0c0-27.2-22-49.3-49.3-49.3H333.6c-5.6,0-9.8,4.5-9.8,9.8v88.6C323.7,841,367.9,885.1,422.2,885.1z"/>
<path fill="#F7F7F7" d="M343.8,499.7l336.9,336.9c22.3,22.3,58.4,22.3,80.7,0l58.4-58.4c22.3-22.3,22.3-58.4,0-80.7L483,360.6c-22.3-22.3-58.4-22.3-80.7,0L343.9,419C321.4,441.3,321.4,477.5,343.8,499.7z"/>
<polygon fill="#C6C6C6" points="686.2,842.3 488.3,688.1 532.1,688.1"/>
<polygon fill="#C6C6C6" points="477.4,355 633.3,510.9 686.2,510.9"/>
</svg>
