
<svg width="990px" height="263px" viewBox="0 0 990 263" version="1.1" xmlns="http://www.w3.org/2000/svg" xmlns:xlink="http://www.w3.org/1999/xlink">
    <g id="Page-1" stroke="none" stroke-width="1" fill="none" fill-rule="evenodd">
        <g id="Artboard" fill="#F05365" fill-rule="nonzero" stroke="#42CAFD" stroke-width="7">
            <path d="M140.812,254 L129.297,221.758 L129.297,73.379 L167.79,73.379 L200.361,81.604 L193.452,35.544 L12.173,35.544 L4.935,81.604 L37.835,73.379 L76.328,73.379 L76.328,221.758 L64.484,254 L140.812,254 Z M273.07,254 L261.555,221.758 L261.555,178.33 C261.555,162.538 265.283667,151.023 272.741,143.785 C280.198333,136.547 289.300667,132.928 300.048,132.928 C305.97,132.928 313.098333,134.134333 321.433,136.547 L321.433,136.547 L321.762,85.223 C319.13,84.7843333 316.936667,84.565 315.182,84.565 C284.036667,84.565 264.296667,102.002 255.962,136.876 L255.962,136.876 L256.949,82.591 L200.361,100.028 L210.231,132.27 L210.231,221.758 L202.993,254 L273.07,254 Z M376.047,67.128 L413.553,35.873 L376.047,4.289 L338.541,35.873 L376.047,67.128 Z M410.263,254 L403.025,221.758 L403.025,82.591 L341.831,100.028 L351.701,132.27 L351.701,221.758 L344.792,254 L410.263,254 Z M517.188,259.264 C536.050667,259.264 552.610333,255.370833 566.867,247.5845 C581.123667,239.798167 592.090333,228.941167 599.767,215.0135 C607.443667,201.085833 611.282,185.129333 611.282,167.144 C611.282,149.378 608.375833,134.298833 602.5635,121.9065 C596.751167,109.514167 589.0745,100.1925 579.5335,93.9415 C569.9925,87.6905 559.629,84.565 548.443,84.565 C535.502333,84.565 524.371167,87.6905 515.0495,93.9415 C505.727833,100.1925 498.544667,108.033667 493.5,117.465 L493.5,117.465 L493.5,18.436 L432.306,35.544 L442.176,67.786 L442.176,242.814 C468.057333,253.780667 493.061333,259.264 517.188,259.264 Z M518.175,224.39 C509.401667,224.39 500.738,222.635333 492.184,219.126 L492.184,219.126 L492.184,163.854 C492.184,150.694 495.3095,140.495 501.5605,133.257 C507.8115,126.019 516.091333,122.4 526.4,122.4 C536.928,122.4 545.153,126.1835 551.075,133.7505 C556.997,141.3175 559.958,153.216333 559.958,169.447 C559.958,187.432333 556.339,201.085833 549.101,210.4075 C541.863,219.729167 531.554333,224.39 518.175,224.39 Z M733.341,259.264 C747.159,259.264 759.551333,258.002833 770.518,255.4805 C781.484667,252.958167 790.477333,250.052 797.496,246.762 L797.496,246.762 L802.76,214.849 C792.012667,218.139 782.087833,220.551667 772.9855,222.087 C763.883167,223.622333 753.519667,224.39 741.895,224.39 C710.969,224.39 693.422333,211.23 689.255,184.91 L689.255,184.91 L809.34,184.91 C810.217333,178.33 810.656,172.188667 810.656,166.486 C810.656,150.036 807.091833,135.56 799.9635,123.058 C792.835167,110.556 782.8555,100.905333 770.0245,94.106 C757.1935,87.3066667 742.553,83.907 726.103,83.907 C709.433667,83.907 694.299667,87.4711667 680.701,94.5995 C667.102333,101.727833 656.409833,111.926833 648.6235,125.1965 C640.837167,138.466167 636.944,153.984 636.944,171.75 C636.944,190.832 641.166167,206.953 649.6105,220.113 C658.054833,233.273 669.569833,243.088167 684.1555,249.5585 C698.741167,256.028833 715.136333,259.264 733.341,259.264 Z M761.964,156.287 L689.255,156.287 C691.009667,143.127 695.067333,133.366667 701.428,127.006 C707.788667,120.645333 715.904,117.465 725.774,117.465 C736.302,117.465 744.6915,120.809833 750.9425,127.4995 C757.1935,134.189167 760.867333,143.785 761.964,156.287 L761.964,156.287 Z M911.659,259.264 C935.566333,259.264 954.045167,254.4935 967.0955,244.9525 C980.145833,235.4115 986.671,222.635333 986.671,206.624 C986.671,192.148 981.790833,180.413667 972.0305,171.421 C962.270167,162.428333 946.094333,155.519333 923.503,150.694 C910.562333,147.842667 901.569667,144.826833 896.525,141.6465 C891.480333,138.466167 888.958,134.463333 888.958,129.638 C888.958,125.69 891.261,122.454833 895.867,119.9325 C900.473,117.410167 906.943333,116.149 915.278,116.149 C924.709333,116.149 934.689,117.465 945.217,120.097 L945.217,120.097 L979.762,137.863 L972.524,90.816 C960.460667,88.6226667 950.097167,86.9228333 941.4335,85.7165 C932.769833,84.5101667 922.954667,83.907 911.988,83.907 C887.642,83.907 869.108333,88.513 856.387,97.725 C843.665667,106.937 837.305,119.000333 837.305,133.915 C837.305,148.610333 842.349667,160.3995 852.439,169.2825 C862.528333,178.1655 878.539667,185.019667 900.473,189.845 C913.633,192.477 922.790167,195.547667 927.9445,199.057 C933.098833,202.566333 935.676,206.843333 935.676,211.888 C935.676,216.274667 933.263333,219.893667 928.438,222.745 C923.612667,225.596333 916.813333,227.022 908.04,227.022 C898.17,227.022 886.326,225.377 872.508,222.087 L872.508,222.087 L836.647,203.334 L843.885,251.368 C854.632333,254.219333 865.215167,256.248167 875.6335,257.4545 C886.051833,258.660833 898.060333,259.264 911.659,259.264 Z" id="Tribes"></path>
        </g>
    </g>
</svg>